<svg xmlns="http://www.w3.org/2000/svg" width="456" height="377" viewBox="0 0 456 377" version="1.1">
	<path d="M 26.717 27.296 C 26.432 28.037, 27.618 30.259, 29.350 32.234 C 32.461 35.782, 46.163 43.596, 94 69.103 L 113.500 79.500 188 80.020 C 257.961 80.508, 262.805 80.655, 267.500 82.434 C 281.353 87.682, 290.603 96.971, 295.035 110.083 C 296.805 115.320, 297.132 118.180, 296.811 125.635 C 296.462 133.745, 295.998 135.619, 292.682 142.329 C 286.949 153.929, 275.446 163.044, 262.885 165.940 C 260.273 166.542, 239.603 166.961, 211.750 166.976 C 186.037 166.989, 165 167.209, 165 167.464 C 165 167.719, 182.043 192.581, 202.874 222.714 C 223.704 252.846, 252.167 294.115, 266.124 314.423 C 280.081 334.731, 292.770 352.281, 294.323 353.423 C 297.056 355.434, 298.393 355.506, 336.573 355.700 C 358.258 355.810, 376 355.731, 376 355.525 C 376 355.318, 354.854 324.426, 329.010 286.876 L 282.019 218.603 294.260 215.012 C 300.992 213.037, 309.027 210.254, 312.115 208.828 C 335.443 198.053, 354.181 177.399, 362.780 152.983 C 372.961 124.075, 368.017 91.313, 349.597 65.610 C 344.503 58.501, 332.610 46.807, 325.673 42.084 C 318.812 37.413, 305.383 31.309, 296.284 28.725 L 288.500 26.515 157.867 26.232 C 49.111 25.997, 27.147 26.175, 26.717 27.296 M 51 167.410 C 51 168.120, 118.782 266.671, 126.237 276.801 C 128.383 279.717, 131.262 282.529, 132.634 283.051 C 135.787 284.250, 211 284.322, 211 283.126 C 211 282.152, 208.369 278.220, 179.474 236 C 139.368 177.398, 134.450 170.533, 131.590 169.147 C 129.455 168.112, 119.642 167.665, 89.899 167.245 C 68.504 166.943, 51 167.018, 51 167.410" stroke="none" fill="#000000" fill-rule="evenodd"/>
</svg>